<?xml version="1.0" standalone="no"?>
<!DOCTYPE svg PUBLIC "-//W3C//DTD SVG 20010904//EN" "http://www.w3.org/TR/2001/REC-SVG-20010904/DTD/svg10.dtd">
<!-- Created using Karbon, part of Calligra: http://www.calligra.org/karbon -->
<svg xmlns="http://www.w3.org/2000/svg" xmlns:xlink="http://www.w3.org/1999/xlink" width="85.6pt" height="144pt">
<defs/>
<g id="layer0">
  <path id="shape0" transform="translate(1.12238e-07, 0)" fill="#ffffff" fill-rule="evenodd" d="M71.6624 77.4123C72.6336 75.6016 74.5218 74.4716 76.5765 74.4716C80.8789 74.4716 87.8139 74.4716 87.8139 74.4716L93.9209 74.4716C94.8115 74.4716 95.6988 74.5791 96.5613 74.7889C100.939 75.8307 104.366 79.464 105.009 84.0911C108.875 112.926 105.107 131.648 105.107 131.648C100.565 156.359 85.0688 176.496 60.9975 179.962C59.9302 180.116 58.8486 179.798 58.0336 179.092C57.2186 178.386 56.7503 177.361 56.7503 176.283C56.7503 163.357 56.7579 113.137 56.7602 98.7827C56.7606 96.6798 57.9441 94.7558 59.8211 93.8071C62.4739 92.5019 64.7055 90.3844 66.1531 87.685C66.1531 87.685 69.5744 81.3058 71.6624 77.4123ZM30.1767 74.4716C32.2313 74.4716 34.1196 75.6016 35.0907 77.4123C37.1788 81.3058 40.6001 87.685 40.6001 87.685C42.049 90.3868 44.2833 92.5058 46.9342 93.8209C48.8091 94.7673 49.9915 96.6884 49.9915 98.7886C50.0029 113.147 50.0029 163.358 50.0029 176.283C50.0029 177.361 49.5346 178.386 48.7196 179.092C47.9046 179.798 46.823 180.116 45.7556 179.962C21.6844 176.496 6.227 156.359 1.64641 131.648C1.64641 131.648 -2.12209 112.926 1.74377 84.0911C2.38666 79.464 5.81417 75.8307 10.1919 74.7889C11.0543 74.5791 11.9417 74.4716 12.8323 74.4716L18.5239 74.4716L30.1767 74.4716ZM60.7861 84.0399C59.2767 86.7119 56.4454 88.3642 53.3766 88.3642C50.3078 88.3642 47.4765 86.7119 45.967 84.0399C43.0093 78.8046 39.6081 72.7841 36.6398 67.5295C35.0793 64.7673 35.103 61.3842 36.7021 58.6441C38.3013 55.9041 41.2351 54.2193 44.4077 54.2193C50.1287 54.2193 56.6244 54.2193 62.3455 54.2193C65.5181 54.2193 68.4519 55.9041 70.051 58.6441C71.6502 61.3842 71.6739 64.7673 70.1135 67.5295C67.145 72.7841 63.7439 78.8046 60.7861 84.0399ZM29.0777 63.1299C29.1213 64.1421 28.7497 65.1283 28.0489 65.8599C27.348 66.5916 26.3789 67.0053 25.3659 67.0053C22.2116 67.0074 18.5239 67.0074 18.5239 67.0074L18.5239 67.0071L17.4103 67.0074C8.83866 67.0074 1.89005 60.0588 1.88989 51.4872C1.88989 51.487 1.88989 51.4869 1.88989 51.4865C1.88989 23.0703 24.9604 0 53.3766 0C81.7928 0 104.863 23.0703 104.863 51.4865C104.863 51.4869 104.863 51.487 104.863 51.4872C104.863 60.0588 97.9145 67.0074 89.3429 67.0074C89.3429 67.0074 84.94 67.0074 81.3873 67.0074C80.3738 67.0072 79.404 66.5933 78.7028 65.8614C78.0017 65.1293 77.6299 64.1426 77.6735 63.1299C77.8099 60.2534 77.1089 57.3513 75.5815 54.7987C72.8962 50.3115 68.0514 47.5647 62.822 47.5647L43.9312 47.5647C38.7018 47.5647 33.857 50.3115 31.1717 54.7987C29.6442 57.3513 28.9432 60.2534 29.0777 63.1299Z"/>
 </g>
</svg>
